<svg width="48" height="48" viewBox="0 0 48 48" fill="none" xmlns="http://www.w3.org/2000/svg">
<path d="M24.0003 12.5576C23.4825 12.5576 23.0628 12.9773 23.0628 13.4951V15.3666C20.9516 15.8014 19.3594 17.6743 19.3594 19.9122C19.3594 22.4712 21.4413 24.5531 24.0003 24.5531C25.5254 24.5531 26.7662 25.7939 26.7662 27.319C26.7662 28.8441 25.5254 30.0849 24.0003 30.0849C22.9618 30.0849 22.0198 29.5115 21.542 28.5883C21.304 28.1286 20.7383 27.9487 20.2784 28.1868C19.8186 28.4248 19.6388 28.9905 19.8769 29.4503C20.5313 30.7146 21.7054 31.5876 23.0628 31.8651V33.7362C23.0628 34.254 23.4825 34.6737 24.0003 34.6737C24.5181 34.6737 24.9378 34.254 24.9378 33.7362V31.8648C27.0489 31.43 28.6412 29.557 28.6412 27.3191C28.6412 24.76 26.5593 22.6781 24.0003 22.6781C22.4752 22.6781 21.2344 21.4373 21.2344 19.9122C21.2344 18.3871 22.4752 17.1463 24.0003 17.1463C25.0388 17.1463 25.9807 17.7198 26.4587 18.6429C26.6967 19.1028 27.2623 19.2825 27.7222 19.0445C28.182 18.8064 28.3618 18.2407 28.1238 17.7809C27.4693 16.5166 26.2953 15.6438 24.9379 15.3662V13.4951C24.9378 12.9773 24.5181 12.5576 24.0003 12.5576Z" fill="black"/>
<path d="M39.2105 24.3458C39.5973 24.669 40.2202 24.5993 40.5286 24.2017L42.9992 21.124C43.3233 20.7202 43.2588 20.1301 42.8549 19.806C42.4511 19.4819 41.8611 19.5465 41.537 19.9502L40.5559 21.1724C40.4472 20.4421 40.2917 19.717 40.0867 19.0023C38.8547 14.7056 36.0231 11.1459 32.1138 8.97883C28.2042 6.81189 23.685 6.29683 19.3883 7.52898C14.9446 8.80314 11.1913 11.8971 9.09074 16.0174C8.85561 16.4786 9.03889 17.0433 9.50014 17.2784C9.96158 17.5136 10.526 17.3302 10.7612 16.869C12.6264 13.2101 15.9593 10.4627 19.9052 9.33133C23.7204 8.23727 27.7334 8.69458 31.2048 10.6187C34.6761 12.5429 37.1904 15.7038 38.2844 19.519C38.4755 20.1852 38.6196 20.8611 38.7164 21.5418L37.3101 20.4105C36.9066 20.086 36.3164 20.15 35.9919 20.5534C35.6675 20.9568 35.7314 21.547 36.1348 21.8715L39.2099 24.3453C39.21 24.3455 39.2102 24.3456 39.2105 24.3458Z" fill="black"/>
<path d="M11.2775 27.0259C11.5516 27.0259 11.8234 26.9062 12.0085 26.676C12.333 26.2726 12.2691 25.6825 11.8656 25.3579L8.79055 22.8841C8.40383 22.5617 7.77983 22.6288 7.47187 23.0277L5.00137 26.1055C4.67727 26.5092 4.74177 27.0993 5.14565 27.4234C5.31871 27.5623 5.52599 27.6298 5.73187 27.6298C6.00637 27.6298 6.27843 27.5098 6.46358 27.2791L7.44468 26.0569C7.55333 26.7872 7.70877 27.5123 7.9138 28.227C9.14587 32.5238 11.9774 36.0835 15.8868 38.2505C18.4043 39.646 21.1742 40.3562 23.9753 40.3562C25.5239 40.3562 27.0825 40.139 28.6122 39.7003C33.0559 38.4262 36.8092 35.3322 38.9098 31.2119C39.1449 30.7507 38.9616 30.1861 38.5004 29.9509C38.0392 29.7159 37.4746 29.8991 37.2394 30.3603C35.3741 34.0192 32.0412 36.7666 28.0954 37.898C24.28 38.9919 20.2671 38.5347 16.7958 36.6106C13.3244 34.6864 10.8101 31.5255 9.71615 27.7103C9.52508 27.0441 9.38099 26.3682 9.28415 25.6875L10.6905 26.8188C10.8636 26.9582 11.0712 27.0259 11.2775 27.0259Z" fill="black"/>
<path d="M28.3893 0.0156858C27.8801 -0.0780642 27.3911 0.258029 27.297 0.767186C27.2029 1.27634 27.5393 1.76534 28.0485 1.85947C38.5227 3.79578 46.125 12.9453 46.125 23.6151C46.125 35.8149 36.1998 45.7401 24 45.7401C11.8002 45.7401 1.875 35.8149 1.875 23.6151C1.875 12.9453 9.47728 3.79578 19.9516 1.85947C20.4608 1.76534 20.7972 1.27625 20.7031 0.767186C20.609 0.258029 20.1201 -0.0780642 19.6108 0.0156858C8.24747 2.11634 0 12.0413 0 23.6151C0 30.0257 2.49638 36.0526 7.02947 40.5856C11.5625 45.1186 17.5894 47.6151 24 47.6151C30.4106 47.6151 36.4375 45.1186 40.9705 40.5856C45.5036 36.0526 48 30.0257 48 23.6151C48 12.0413 39.7525 2.11634 28.3893 0.0156858Z" fill="black"/>
</svg>
