<svg width="228" height="51" viewBox="0 0 228 51" fill="none" xmlns="http://www.w3.org/2000/svg">
<g clip-path="url(#clip0_461_116)">
<path d="M117.541 10.9308C117.909 10.553 118.332 10.2561 118.826 10.0582C119.32 9.85126 119.842 9.7523 120.408 9.7523C121.019 9.7523 121.594 9.88725 122.133 10.1481C122.672 10.409 123.167 10.7869 123.625 11.2907L125.467 9.23052C125.09 8.77171 124.632 8.36687 124.101 8.02502C123.571 7.67416 122.987 7.41327 122.358 7.24234C121.72 7.06241 121.082 6.98145 120.426 6.98145C119.419 6.98145 118.485 7.16137 117.631 7.51223C116.777 7.86308 116.022 8.36687 115.384 9.00561C114.746 9.64435 114.243 10.4 113.892 11.2547C113.542 12.1093 113.362 13.0449 113.362 14.0525C113.362 15.0871 113.533 16.0407 113.865 16.9044C114.198 17.768 114.674 18.5147 115.294 19.1534C115.914 19.7922 116.651 20.278 117.496 20.6288C118.341 20.9797 119.266 21.1506 120.273 21.1506C120.938 21.1506 121.603 21.0696 122.25 20.9077C122.906 20.7458 123.499 20.5209 124.038 20.233C124.578 19.9451 124.991 19.6212 125.297 19.2704C125.297 19.2614 123.868 16.9763 123.868 16.9763C123.607 17.2552 123.302 17.4981 122.969 17.705C122.628 17.9119 122.268 18.0739 121.882 18.1998C121.495 18.3168 121.091 18.3798 120.677 18.3798C120.039 18.3798 119.455 18.2808 118.925 18.0739C118.395 17.867 117.936 17.5791 117.559 17.2102C117.181 16.8414 116.885 16.3826 116.687 15.8518C116.48 15.321 116.382 14.7273 116.382 14.0705C116.382 13.4318 116.489 12.847 116.696 12.3252C116.885 11.7585 117.172 11.3087 117.541 10.9308Z" fill="#1A1A1A"/>
<path d="M113.362 33.5294H117.325V44.6309H120.273V33.5294H124.389V30.8845H113.362V33.5294Z" fill="#1A1A1A"/>
<path d="M128.981 34.2402H126.195V44.631H128.981V34.2402Z" fill="#1A1A1A"/>
<path d="M127.57 33.0167C128.484 33.0167 129.224 32.2756 129.224 31.3614C129.224 30.4472 128.484 29.7061 127.57 29.7061C126.657 29.7061 125.917 30.4472 125.917 31.3614C125.917 32.2756 126.657 33.0167 127.57 33.0167Z" fill="#1A1A1A"/>
<path d="M139.092 29.9668H141.123L144.951 26.5842H141.078L139.092 29.9668Z" fill="#1A1A1A"/>
<path d="M150.155 34.2402V36.7321H148.016V44.6309H145.23V36.7321H143.28V34.2402H145.23V31.6042H148.016V34.2402H150.155Z" fill="#1A1A1A"/>
<path d="M136.423 31.5593L138.939 32.7918L139.802 31.8652L137.348 29.7061H135.506L133.008 31.8652L133.897 32.7918L136.423 31.5593Z" fill="#1A1A1A"/>
<path d="M139.415 41.3833C139.056 41.7341 138.66 41.995 138.247 42.157C138.04 42.2379 137.807 42.3009 137.564 42.3369C137.321 42.3729 137.061 42.3909 136.791 42.3909C136.692 42.3909 136.602 42.3909 136.503 42.3819C136.423 42.3729 136.342 42.3729 136.261 42.3549C135.793 42.3099 135.398 42.193 135.048 42.004C134.679 41.7971 134.382 41.5182 134.167 41.1584C134.158 41.1494 134.149 41.1314 134.14 41.1224C134.086 41.0324 134.041 40.9335 133.996 40.8345L136.8 40.2947L141.734 39.3411C141.734 38.6304 141.626 37.9827 141.428 37.3979C141.392 37.308 141.356 37.218 141.32 37.137C141.285 37.0471 141.24 36.9571 141.195 36.8671C141.141 36.7502 141.069 36.6332 140.997 36.5163C140.934 36.4173 140.871 36.3184 140.808 36.2284C140.673 36.0395 140.53 35.8686 140.377 35.6976C140.305 35.6167 140.233 35.5447 140.161 35.4727C140.143 35.4547 140.116 35.4367 140.107 35.4187C140.044 35.3558 139.963 35.3018 139.892 35.2388C139.802 35.1668 139.712 35.1039 139.631 35.0409C139.532 34.9689 139.442 34.906 139.343 34.852C139.253 34.798 139.155 34.735 139.047 34.69C139.038 34.681 139.029 34.681 139.02 34.6721C138.921 34.6271 138.84 34.5731 138.741 34.5461C138.633 34.5011 138.526 34.4471 138.427 34.4112C138.319 34.3662 138.211 34.3302 138.094 34.3032C137.537 34.1413 136.953 34.0603 136.324 34.0603C135.802 34.0603 135.299 34.1143 134.823 34.2312C134.338 34.3392 133.888 34.5191 133.457 34.744C132.603 35.2118 131.938 35.8506 131.453 36.6692C130.958 37.4969 130.725 38.4145 130.725 39.4491C130.725 40.4837 130.967 41.4103 131.462 42.2289C131.956 43.0386 132.657 43.6863 133.565 44.1451C133.861 44.2891 134.158 44.415 134.481 44.514C134.787 44.622 135.11 44.6939 135.452 44.7389C135.847 44.8019 136.27 44.8379 136.701 44.8379C137.052 44.8379 137.393 44.8199 137.717 44.7839C138.067 44.7389 138.391 44.6759 138.705 44.586C138.714 44.586 138.714 44.586 138.714 44.586C138.831 44.55 138.939 44.514 139.056 44.478C139.829 44.1901 140.485 43.7493 141.015 43.1556L139.406 41.4103L139.415 41.3833ZM133.789 38.5135C133.789 38.4865 133.798 38.4685 133.807 38.4415C133.816 38.3695 133.834 38.2886 133.852 38.2256C133.978 37.7668 134.194 37.3889 134.49 37.0831C134.535 37.0291 134.598 36.9751 134.643 36.9301C134.652 36.9301 134.652 36.9211 134.661 36.9211C134.67 36.9211 134.67 36.9211 134.67 36.9121C134.733 36.8581 134.796 36.8042 134.877 36.7592C134.922 36.7322 134.976 36.6962 135.021 36.6692C135.083 36.6242 135.146 36.5973 135.209 36.5703C135.281 36.5343 135.353 36.5073 135.425 36.4893C135.488 36.4623 135.569 36.4443 135.641 36.4263C135.722 36.4083 135.793 36.3903 135.874 36.3813C135.955 36.3634 136.036 36.3634 136.117 36.3544C136.198 36.3454 136.27 36.3454 136.351 36.3454H136.396C136.476 36.3454 136.548 36.3544 136.62 36.3544C136.683 36.3634 136.746 36.3634 136.809 36.3724C136.872 36.3813 136.944 36.3903 137.007 36.4083C137.124 36.4353 137.222 36.4623 137.33 36.4983C137.402 36.5253 137.465 36.5433 137.528 36.5793C137.582 36.6063 137.645 36.6332 137.699 36.6692C137.789 36.7142 137.869 36.7682 137.95 36.8312C138.121 36.9481 138.256 37.0831 138.382 37.245C138.588 37.4969 138.732 37.7938 138.822 38.1356L136.836 38.5225L133.726 39.1252C133.726 38.9093 133.744 38.7024 133.789 38.5135Z" fill="#1A1A1A"/>
<path d="M132.963 12.9098C133.223 13.0537 133.421 13.2787 133.547 13.5935C133.682 13.9084 133.744 14.3042 133.744 14.772V20.9165H136.53V14.5741C136.53 13.6295 136.396 12.8468 136.126 12.2081C135.856 11.5694 135.461 11.1015 134.931 10.7867C134.401 10.4718 133.744 10.3189 132.963 10.3189C132.396 10.3189 131.857 10.4358 131.336 10.6697C130.815 10.9036 130.365 11.2185 129.979 11.6053C129.898 11.6863 129.835 11.7673 129.763 11.8482V6.39648H126.995V20.9255H127.606C127.84 20.9255 128.101 20.9255 128.388 20.9255H129.781V14.7001C129.781 14.4122 129.835 14.1513 129.934 13.9174C130.042 13.6835 130.195 13.4766 130.392 13.2876C130.599 13.1077 130.824 12.9638 131.093 12.8648C131.354 12.7659 131.642 12.7209 131.956 12.7209C132.369 12.7029 132.702 12.7659 132.963 12.9098Z" fill="#1A1A1A"/>
<path d="M140.017 20.6195C140.566 20.9524 141.213 21.1233 141.959 21.1233C142.543 21.1233 143.1 21.0154 143.603 20.7904C144.115 20.5655 144.556 20.2597 144.924 19.8638C145.041 19.7379 145.14 19.6119 145.239 19.486L145.293 20.9254H147.944V10.5347H145.158V16.7421C145.158 17.039 145.104 17.3179 145.005 17.5698C144.897 17.8217 144.754 18.0376 144.574 18.2175C144.394 18.3974 144.169 18.5414 143.918 18.6403C143.666 18.7393 143.379 18.7843 143.064 18.7843C142.453 18.7843 141.968 18.5774 141.626 18.1635C141.276 17.7497 141.105 17.1829 141.105 16.4452V10.5347H138.319V16.958C138.319 17.8217 138.463 18.5684 138.759 19.1891C139.047 19.8098 139.469 20.2867 140.017 20.6195Z" fill="#1A1A1A"/>
<path d="M176.109 14.7003C176.109 14.4124 176.163 14.1516 176.262 13.9176C176.37 13.6837 176.523 13.4768 176.72 13.2879C176.927 13.108 177.152 12.964 177.421 12.8651C177.682 12.7661 177.969 12.7211 178.284 12.7211C178.688 12.7121 179.021 12.7751 179.282 12.9191C179.542 13.063 179.74 13.2879 179.866 13.6028C180.001 13.9176 180.063 14.3135 180.063 14.7813V20.9258H182.849V14.5834C182.849 13.6388 182.715 12.8561 182.445 12.2173C182.175 11.5786 181.78 11.1108 181.25 10.7959C180.719 10.4811 180.063 10.3281 179.282 10.3281C178.715 10.3281 178.176 10.4451 177.655 10.679C177.134 10.9129 176.684 11.2278 176.298 11.6146C176.208 11.7046 176.127 11.7945 176.055 11.8935L176.001 10.544H173.314V20.9348H173.925C174.159 20.9348 174.42 20.9348 174.707 20.9348H176.1V14.7003H176.109Z" fill="#1A1A1A"/>
<path d="M166.466 7.85373L168.973 9.08622L169.836 8.1596L167.392 6.00049H165.54L163.051 8.1596L163.932 9.08622L166.466 7.85373Z" fill="#1A1A1A"/>
<path d="M171.193 3.40077C170.798 3.0769 170.268 2.89697 169.594 2.89697C168.803 2.89697 168.147 3.0679 167.598 3.40976L168.237 4.56129C168.596 4.37237 168.946 4.26441 169.288 4.26441C169.531 4.26441 169.719 4.33638 169.872 4.45333C170.025 4.58828 170.097 4.75921 170.097 4.96612C170.097 5.34397 169.8 5.67683 169.216 5.96471L170.133 6.86434C170.618 6.65742 171.031 6.37854 171.337 6.01869C171.643 5.65884 171.804 5.22701 171.804 4.7772C171.795 4.21043 171.589 3.74262 171.193 3.40077Z" fill="#1A1A1A"/>
<path d="M169.459 17.6777C169.099 18.0285 168.704 18.2894 168.29 18.4514C168.084 18.5323 167.85 18.5953 167.607 18.6313C167.365 18.6673 167.104 18.6853 166.835 18.6853C166.736 18.6853 166.646 18.6853 166.547 18.6763C166.466 18.6673 166.385 18.6673 166.304 18.6493C165.837 18.6043 165.442 18.4874 165.091 18.2984C164.723 18.0915 164.426 17.8126 164.21 17.4528C164.201 17.4438 164.192 17.4258 164.183 17.4168C164.129 17.3268 164.085 17.2279 164.04 17.1289L166.844 16.5891L171.777 15.6355C171.777 14.9248 171.67 14.2771 171.472 13.6923C171.436 13.6024 171.4 13.5124 171.364 13.4314C171.328 13.3415 171.292 13.2515 171.238 13.1615C171.184 13.0446 171.112 12.9276 171.04 12.8107C170.978 12.7117 170.915 12.6128 170.852 12.5138C170.717 12.3249 170.573 12.154 170.42 11.983C170.348 11.9021 170.277 11.8301 170.205 11.7581C170.187 11.7401 170.16 11.7221 170.151 11.7041C170.088 11.6412 170.007 11.5872 169.935 11.5242C169.845 11.4612 169.764 11.3893 169.674 11.3263C169.576 11.2633 169.486 11.1914 169.387 11.1374C169.288 11.0834 169.189 11.0204 169.09 10.9754C169.081 10.9664 169.072 10.9664 169.063 10.9575C168.964 10.9125 168.884 10.8585 168.785 10.8315C168.677 10.7865 168.569 10.7325 168.47 10.6966C168.362 10.6516 168.254 10.6156 168.138 10.5886C167.58 10.4267 166.996 10.3457 166.367 10.3457C165.846 10.3457 165.343 10.3997 164.866 10.5166C164.381 10.6246 163.932 10.8045 163.5 11.0294C162.647 11.4972 161.982 12.136 161.496 12.9546C161.002 13.7823 160.768 14.7089 160.768 15.7345C160.768 16.7691 161.011 17.6957 161.505 18.5143C162 19.324 162.701 19.9717 163.608 20.4306C163.905 20.5745 164.201 20.7004 164.525 20.7994C164.83 20.9074 165.154 20.9793 165.495 21.0243C165.891 21.0873 166.313 21.1233 166.745 21.1233C167.095 21.1233 167.437 21.1053 167.76 21.0693C168.111 21.0243 168.434 20.9613 168.749 20.8714C168.758 20.8714 168.758 20.8714 168.758 20.8714C168.875 20.8354 168.982 20.7994 169.099 20.7634C169.872 20.4755 170.528 20.0437 171.058 19.441L169.45 17.6957L169.459 17.6777ZM163.824 14.8169C163.824 14.7899 163.833 14.7719 163.842 14.7449C163.851 14.6729 163.869 14.592 163.887 14.529C164.013 14.0792 164.228 13.6923 164.525 13.3865C164.57 13.3325 164.633 13.2785 164.678 13.2335C164.687 13.2335 164.687 13.2245 164.696 13.2245C164.705 13.2245 164.705 13.2245 164.705 13.2155C164.768 13.1615 164.83 13.1076 164.911 13.0626C164.956 13.0356 165.01 12.9996 165.055 12.9726C165.118 12.9276 165.181 12.9007 165.244 12.8737C165.316 12.8377 165.388 12.8107 165.46 12.7927C165.531 12.7657 165.603 12.7477 165.675 12.7297C165.756 12.7117 165.828 12.6937 165.909 12.6847C165.99 12.6667 166.071 12.6667 166.152 12.6578C166.232 12.6488 166.304 12.6488 166.385 12.6488H166.43C166.511 12.6488 166.583 12.6578 166.655 12.6578C166.718 12.6667 166.772 12.6667 166.835 12.6757C166.897 12.6847 166.969 12.6937 167.032 12.7117C167.149 12.7297 167.248 12.7657 167.356 12.8017C167.428 12.8287 167.491 12.8467 167.553 12.8827C167.607 12.9096 167.67 12.9366 167.724 12.9726C167.814 13.0176 167.895 13.0716 167.976 13.1346C168.138 13.2515 168.281 13.3865 168.407 13.5484C168.614 13.8003 168.758 14.0972 168.848 14.439L166.861 14.8259L163.752 15.4286C163.77 15.2037 163.788 15.0058 163.824 14.8169Z" fill="#1A1A1A"/>
<path d="M159.268 10.5347V20.0348C159.259 21.7261 158.827 22.9945 157.964 23.8222C157.56 24.209 157.075 24.5059 156.5 24.7128C155.843 24.9557 155.071 25.0727 154.19 25.0727C153.812 25.0727 153.444 25.0547 153.093 25.0097C152.617 24.9557 152.15 24.8748 151.7 24.7488C150.999 24.5509 150.388 24.272 149.894 23.9122C149.84 23.8762 149.786 23.8312 149.732 23.7862L150.811 21.843C151.206 22.1669 151.682 22.4188 152.249 22.6077C152.455 22.6797 152.671 22.7336 152.878 22.7696C153.237 22.8506 153.606 22.8866 153.974 22.8866C154.873 22.8866 155.538 22.6797 155.951 22.2568C156.365 21.843 156.517 21.2043 156.517 20.3586V19.6119C156.455 19.6929 156.383 19.7739 156.302 19.8548C155.924 20.2417 155.466 20.5475 154.945 20.7904C154.424 21.0243 153.875 21.1413 153.318 21.1413C152.536 21.1413 151.88 20.9794 151.35 20.6645C150.82 20.3496 150.424 19.8728 150.155 19.2431C149.885 18.6043 149.75 17.8217 149.75 16.8771V10.5347H152.536V16.6791C152.536 17.1469 152.599 17.5428 152.734 17.8577C152.869 18.1725 153.057 18.3974 153.318 18.5414C153.579 18.6853 153.911 18.7483 154.316 18.7393C154.63 18.7393 154.918 18.6853 155.178 18.5953C155.439 18.4964 155.673 18.3524 155.879 18.1725C156.086 17.9836 156.23 17.7767 156.338 17.5428C156.446 17.3089 156.491 17.048 156.491 16.7601V10.5347H159.268Z" fill="#1A1A1A"/>
<path d="M167.985 30.8845H164.39L158.782 36.5432V30.8845H155.834V44.6309H158.782V39.8718L160.148 38.5314L164.741 44.6309H168.255L162.089 36.6421L167.985 30.8845Z" fill="#1A1A1A"/>
<path d="M201.524 34.537C200.994 34.2131 200.32 34.0422 199.511 34.0422C199.17 34.0422 198.828 34.0962 198.469 34.1951C198.118 34.3031 197.777 34.447 197.444 34.636C197.121 34.8249 196.824 35.0498 196.564 35.3107C196.348 35.5266 196.168 35.7605 196.015 36.0034C195.881 35.6525 195.71 35.3467 195.503 35.0948C195.206 34.7259 194.838 34.456 194.416 34.2851C193.993 34.1142 193.499 34.0332 192.951 34.0332C192.6 34.0332 192.241 34.0962 191.881 34.2131C191.522 34.3301 191.189 34.492 190.875 34.6809C190.56 34.8789 190.282 35.1128 190.039 35.4006C189.976 35.4726 189.931 35.5536 189.877 35.6255L189.832 34.2311H187.145V44.6218H189.949V38.4324C189.949 38.1445 190.003 37.8836 190.102 37.6407C190.21 37.3978 190.353 37.1909 190.533 37.011C190.713 36.831 190.938 36.6961 191.198 36.5971C191.459 36.4982 191.737 36.4532 192.025 36.4532C192.573 36.4532 192.996 36.6331 193.292 36.984C193.589 37.3348 193.733 37.8386 193.733 38.4954V44.6218H196.519V38.4324C196.519 38.1445 196.572 37.8836 196.671 37.6497C196.779 37.4158 196.923 37.2089 197.103 37.02C197.282 36.84 197.507 36.6961 197.768 36.5971C198.028 36.4982 198.307 36.4532 198.613 36.4532C199.188 36.4532 199.619 36.6241 199.898 36.966C200.176 37.3079 200.32 37.8296 200.32 38.5403V44.6308H203.106V38.3424C203.106 37.3978 202.971 36.6151 202.702 35.9764C202.45 35.3377 202.055 34.8609 201.524 34.537Z" fill="#1A1A1A"/>
<path d="M180.27 48.9221C181.124 48.9221 181.816 48.2293 181.816 47.3748C181.816 46.5202 181.124 45.8274 180.27 45.8274C179.416 45.8274 178.724 46.5202 178.724 47.3748C178.724 48.2293 179.416 48.9221 180.27 48.9221Z" fill="#1A1A1A"/>
<path d="M180.288 31.3613L182.804 32.5938L183.667 31.6672L181.214 29.5081H179.371L176.882 31.6672L177.763 32.5938L180.288 31.3613Z" fill="#1A1A1A"/>
<path d="M183.29 41.3743C182.93 41.7251 182.535 41.986 182.121 42.148C181.915 42.2289 181.681 42.2919 181.447 42.3369C181.205 42.3729 180.944 42.3909 180.675 42.3909C180.576 42.3909 180.477 42.3909 180.387 42.3819C180.306 42.3729 180.225 42.3729 180.144 42.3549C179.677 42.3099 179.282 42.193 178.931 42.004C178.563 41.7971 178.266 41.5182 178.059 41.1584C178.05 41.1494 178.041 41.1314 178.032 41.1224C177.978 41.0324 177.934 40.9335 177.889 40.8345L180.693 40.2947L185.626 39.3411C185.626 38.6304 185.519 37.9827 185.321 37.3979C185.294 37.299 185.258 37.218 185.213 37.137C185.177 37.0471 185.132 36.9481 185.087 36.8671C185.033 36.7502 184.961 36.6332 184.898 36.5163C184.836 36.4173 184.773 36.3184 184.71 36.2194C184.575 36.0305 184.431 35.8596 184.287 35.6976C184.215 35.6167 184.144 35.5447 184.072 35.4727C184.045 35.4547 184.027 35.4457 184.018 35.4187C183.946 35.3558 183.874 35.3018 183.802 35.2388C183.712 35.1668 183.622 35.1039 183.532 35.0409C183.443 34.9689 183.344 34.906 183.245 34.852C183.146 34.798 183.047 34.735 182.948 34.69C182.939 34.681 182.93 34.681 182.912 34.6721C182.813 34.6271 182.733 34.5731 182.634 34.5371C182.526 34.4921 182.418 34.4381 182.319 34.4112C182.211 34.3662 182.103 34.3302 181.987 34.3032C181.438 34.1413 180.845 34.0603 180.216 34.0603C179.695 34.0603 179.192 34.1143 178.715 34.2312C178.23 34.3392 177.781 34.5191 177.349 34.753C176.496 35.2208 175.831 35.8596 175.345 36.6782C174.851 37.5059 174.617 38.4235 174.617 39.4581C174.617 40.4927 174.86 41.4193 175.354 42.2379C175.849 43.0476 176.55 43.6953 177.457 44.1541C177.754 44.2981 178.05 44.424 178.374 44.523C178.679 44.631 179.003 44.7029 179.344 44.7479C179.74 44.8109 180.153 44.8469 180.594 44.8469C180.944 44.8469 181.286 44.8289 181.609 44.7929C181.96 44.7479 182.292 44.6849 182.598 44.595C182.607 44.595 182.607 44.595 182.607 44.595C182.724 44.559 182.84 44.523 182.948 44.487C183.73 44.1991 184.377 43.7583 184.907 43.1646L183.299 41.4193L183.29 41.3743ZM177.655 38.5135C177.655 38.4865 177.664 38.4685 177.673 38.4415C177.682 38.3695 177.7 38.2886 177.718 38.2256C177.844 37.7668 178.059 37.3889 178.356 37.0831C178.401 37.0291 178.464 36.9751 178.509 36.9301C178.518 36.9301 178.518 36.9211 178.527 36.9211C178.536 36.9211 178.536 36.9211 178.536 36.9121C178.599 36.8581 178.67 36.8042 178.742 36.7592C178.787 36.7232 178.841 36.6962 178.886 36.6692C178.949 36.6242 179.012 36.5973 179.084 36.5703C179.147 36.5343 179.228 36.5073 179.3 36.4893C179.371 36.4623 179.443 36.4443 179.515 36.4263C179.596 36.4083 179.668 36.3903 179.749 36.3813C179.83 36.3634 179.911 36.3634 179.992 36.3544C180.072 36.3454 180.144 36.3454 180.225 36.3454H180.27C180.351 36.3454 180.423 36.3544 180.495 36.3544C180.558 36.3634 180.612 36.3634 180.675 36.3724C180.737 36.3813 180.809 36.3903 180.872 36.4083C180.989 36.4263 181.088 36.4623 181.196 36.4983C181.268 36.5253 181.331 36.5433 181.393 36.5793C181.447 36.6063 181.51 36.6332 181.564 36.6692C181.654 36.7142 181.735 36.7682 181.816 36.8312C181.978 36.9481 182.121 37.0831 182.247 37.245C182.454 37.4969 182.598 37.7938 182.688 38.1356L180.702 38.5225L177.592 39.1252C177.601 38.9093 177.619 38.7024 177.655 38.5135Z" fill="#1A1A1A"/>
<path d="M172.847 34.2402H170.061V44.631H172.847V34.2402Z" fill="#1A1A1A"/>
<path d="M171.436 33.0167C172.349 33.0167 173.089 32.2756 173.089 31.3614C173.089 30.4472 172.349 29.7061 171.436 29.7061C170.523 29.7061 169.782 30.4472 169.782 31.3614C169.782 32.2756 170.523 33.0167 171.436 33.0167Z" fill="#1A1A1A"/>
<path d="M192.51 20.9255H195.449V9.83311H199.574V7.1792H188.547V9.83311H192.51V20.9255Z" fill="#1A1A1A"/>
<path d="M227.596 12.2173C227.326 11.5786 226.931 11.1108 226.4 10.7959C225.87 10.4811 225.214 10.3281 224.432 10.3281C223.866 10.3281 223.327 10.4451 222.806 10.679C222.284 10.9129 221.835 11.2278 221.449 11.6146C221.359 11.7046 221.278 11.7945 221.206 11.8935L221.152 10.544H218.465V20.9348H219.076C219.31 20.9348 219.57 20.9348 219.858 20.9348H221.251V14.7093C221.251 14.4214 221.305 14.1605 221.404 13.9266C221.511 13.6927 221.664 13.4858 221.862 13.2969C222.069 13.117 222.293 12.973 222.563 12.8741C222.824 12.7751 223.111 12.7301 223.426 12.7301C223.83 12.7211 224.163 12.7841 224.423 12.9281C224.684 13.072 224.882 13.2969 225.007 13.6118C225.142 13.9266 225.205 14.3225 225.205 14.7903V20.9348H227.991V14.5924C228 13.6388 227.865 12.8471 227.596 12.2173Z" fill="#1A1A1A"/>
<path d="M214.942 2.89697H211.078L214.906 6.27958H216.937L214.942 2.89697Z" fill="#1A1A1A"/>
<path d="M211.608 7.85373L214.115 9.08622L214.978 8.1596L212.533 6.00049H210.682L208.193 8.1596L209.073 9.08622L211.608 7.85373Z" fill="#1A1A1A"/>
<path d="M214.6 17.6777C214.241 18.0285 213.846 18.2894 213.432 18.4514C213.225 18.5323 212.992 18.5953 212.758 18.6313C212.515 18.6673 212.255 18.6853 211.985 18.6853C211.886 18.6853 211.787 18.6853 211.698 18.6763C211.617 18.6673 211.536 18.6673 211.455 18.6493C210.988 18.6043 210.592 18.4874 210.242 18.2984C209.873 18.0915 209.577 17.8126 209.361 17.4528C209.352 17.4438 209.343 17.4258 209.334 17.4168C209.28 17.3268 209.235 17.2279 209.19 17.1289L211.994 16.5891L216.928 15.6355C216.928 14.9248 216.82 14.2771 216.622 13.6923C216.587 13.6024 216.551 13.5124 216.515 13.4314C216.479 13.3415 216.434 13.2515 216.389 13.1615C216.335 13.0446 216.263 12.9276 216.191 12.8107C216.128 12.7117 216.065 12.6128 216.002 12.5138C215.868 12.3249 215.724 12.154 215.571 11.983C215.499 11.9021 215.427 11.8301 215.355 11.7581C215.337 11.7401 215.31 11.7221 215.301 11.7041C215.238 11.6412 215.158 11.5872 215.086 11.5242C214.996 11.4612 214.906 11.3893 214.816 11.3263C214.717 11.2633 214.627 11.1914 214.529 11.1374C214.43 11.0834 214.331 11.0204 214.232 10.9754C214.223 10.9664 214.205 10.9664 214.196 10.9575C214.097 10.9125 214.016 10.8585 213.917 10.8315C213.81 10.7865 213.702 10.7325 213.603 10.6966C213.495 10.6516 213.387 10.6156 213.27 10.5886C212.713 10.4267 212.129 10.3457 211.5 10.3457C210.979 10.3457 210.475 10.3997 209.999 10.5166C209.514 10.6246 209.064 10.8045 208.633 11.0294C207.779 11.4972 207.114 12.136 206.629 12.9546C206.135 13.7823 205.901 14.7089 205.901 15.7345C205.901 16.7691 206.144 17.6957 206.638 18.5143C207.132 19.324 207.833 19.9717 208.741 20.4306C209.037 20.5745 209.334 20.7004 209.658 20.7994C209.963 20.9074 210.287 20.9793 210.628 21.0243C211.024 21.0873 211.437 21.1233 211.877 21.1233C212.228 21.1233 212.569 21.1053 212.893 21.0693C213.243 21.0243 213.567 20.9613 213.881 20.8714C213.89 20.8714 213.89 20.8714 213.89 20.8714C214.007 20.8354 214.115 20.7994 214.232 20.7634C215.005 20.4755 215.661 20.0437 216.191 19.441L214.582 17.6957L214.6 17.6777ZM208.966 14.8169C208.966 14.7899 208.975 14.7719 208.984 14.7449C208.993 14.6729 209.01 14.592 209.028 14.529C209.154 14.0792 209.37 13.6923 209.667 13.3865C209.711 13.3325 209.774 13.2785 209.819 13.2335C209.828 13.2335 209.828 13.2245 209.837 13.2245C209.846 13.2245 209.846 13.2245 209.846 13.2155C209.909 13.1615 209.981 13.1076 210.053 13.0626C210.098 13.0356 210.152 12.9996 210.197 12.9726C210.26 12.9276 210.323 12.9007 210.386 12.8737C210.457 12.8377 210.529 12.8107 210.601 12.7927C210.673 12.7657 210.745 12.7477 210.817 12.7297C210.898 12.7117 210.97 12.6937 211.051 12.6847C211.131 12.6667 211.212 12.6667 211.293 12.6578C211.374 12.6488 211.446 12.6488 211.527 12.6488H211.572C211.653 12.6488 211.725 12.6578 211.796 12.6578C211.859 12.6667 211.913 12.6667 211.976 12.6757C212.039 12.6847 212.111 12.6937 212.174 12.7117C212.291 12.7297 212.39 12.7657 212.497 12.8017C212.569 12.8287 212.632 12.8467 212.695 12.8827C212.749 12.9096 212.812 12.9366 212.866 12.9726C212.956 13.0176 213.037 13.0716 213.118 13.1346C213.279 13.2515 213.423 13.3865 213.549 13.5484C213.756 13.8003 213.899 14.0972 213.989 14.439L212.003 14.8259L208.894 15.4286C208.912 15.2037 208.939 15.0058 208.966 14.8169Z" fill="#1A1A1A"/>
<path d="M204.167 10.5347H201.381V20.9254H204.167V10.5347Z" fill="#1A1A1A"/>
<path d="M202.756 9.31113C203.669 9.31113 204.409 8.57001 204.409 7.65581C204.409 6.7416 203.669 6.00049 202.756 6.00049C201.842 6.00049 201.102 6.7416 201.102 7.65581C201.102 8.57001 201.842 9.31113 202.756 9.31113Z" fill="#1A1A1A"/>
<path d="M54.7668 51.009C68.8379 51.009 80.2449 39.5902 80.2449 25.5045C80.2449 11.4188 68.8379 0 54.7668 0C40.6956 0 29.2886 11.4188 29.2886 25.5045C29.2886 39.5902 40.6956 51.009 54.7668 51.009Z" fill="#FFD530"/>
<path d="M12.7346 51.009C19.7677 51.009 25.4691 39.5902 25.4691 25.5045C25.4691 11.4188 19.7677 0 12.7346 0C5.70146 0 0 11.4188 0 25.5045C0 39.5902 5.70146 51.009 12.7346 51.009Z" fill="#FFE293"/>
<path d="M84.0643 25.5045C84.0643 39.5927 92.0448 51.009 101.895 51.009V0C92.0538 0 84.0643 11.4163 84.0643 25.5045Z" fill="#FFE075"/>
</g>
<defs>
<clipPath id="clip0_461_116">
<rect width="228" height="51" fill="white"/>
</clipPath>
</defs>
</svg>
