<svg width="390" height="86" viewBox="0 0 390 86" fill="none" xmlns="http://www.w3.org/2000/svg">
<path d="M368.929 1.96298C370.334 1.91515 371.838 2.05136 373.243 2.00354C374.464 2.0557 375.953 1.72384 377.189 2.24408C379.178 2.83244 380.645 4.65691 381.729 6.2133C383.911 9.79414 385.073 13.6909 386.235 17.5876C388.091 25.3971 388.726 33.1544 388.993 41.1117C389.107 50.1051 388.468 59.0304 386.609 67.9036C385.798 71.68 384.619 75.6565 382.956 79.1808C381.814 81.469 379.866 84.9093 376.888 85.573C375.215 86.0049 373.142 85.7006 371.454 85.6644C368.544 85.576 365.735 85.6716 362.825 85.5832C342.007 85.4485 13.8076 83.9699 12.0031 83.2816C8.01019 81.6368 6.14877 76.4518 5.0025 73.0231C2.31028 65.4295 1.39111 57.5882 1.12437 49.6309C0.642096 40.8375 0.912151 32.1122 2.40278 23.439C3.50364 17.1222 4.77296 10.2373 8.33067 4.49282C9.40426 2.95672 10.7462 1.0366 12.9719 0.304779C13.7927 -0.379225 364.799 1.82242 368.929 1.96298Z" fill="url(#paint0_linear_1423_1644)"/>
<defs>
<linearGradient id="paint0_linear_1423_1644" x1="410.561" y1="33.8184" x2="-125.058" y2="55.8384" gradientUnits="userSpaceOnUse">
<stop stop-color="#FDEA4A"/>
<stop offset="0.5269" stop-color="#03ECFA"/>
<stop offset="1" stop-color="#2B24A4"/>
</linearGradient>
</defs>
</svg>
